<svg xmlns="http://www.w3.org/2000/svg" xmlns:xlink="http://www.w3.org/1999/xlink" width="157.15" height="39.042" viewBox="0 0 157.15 39.042"><defs><clipPath id="a"><path d="M0,0H36.124V39.042H0Z" transform="translate(0 0.077)" fill="none"/></clipPath></defs><g transform="translate(0 -0.077)"><path d="M11.948,37.953v0A27.567,27.567,0,0,1,14.2,25.008c.591-1.268,1.29-2.025,1.872-2.025a.619.619,0,0,1,.181.027c.362.111.613.548.707,1.231a62.215,62.215,0,0,0,1.269,6.481.04.04,0,0,1-.007.01,36.261,36.261,0,0,1-6.278,7.219Zm15.683-2.072h0a20.64,20.64,0,0,1-7.082-8.293c-.468-1.032-.757-2.3-.162-2.75a.714.714,0,0,1,.443-.138,1.726,1.726,0,0,1,.846.279,38.236,38.236,0,0,0,5.108,2.615h0V27.6a28.782,28.782,0,0,1,.846,8.275ZM7.225,25.192A29.714,29.714,0,0,1,0,24.362,28.512,28.512,0,0,1,12.291,17.78a6.393,6.393,0,0,1,1.308-.156c.8,0,1.333.231,1.488.651.138.377-.042.867-.508,1.378A65.746,65.746,0,0,0,10.2,25.079h-.013C9.178,25.154,8.183,25.192,7.225,25.192Zm22.144-.809a14.9,14.9,0,0,1-3.235-.339c-1.234-.275-2-.852-1.956-1.468.028-.37.354-.72.895-.962a38.224,38.224,0,0,0,4.954-2.6l.008,0A20.768,20.768,0,0,1,35.752,23.2,17.855,17.855,0,0,1,29.369,24.383Zm-3.884-6.11a.655.655,0,0,1-.5-.194,1.456,1.456,0,0,1-.1-1.364,61.749,61.749,0,0,0,1.374-6.043l.009,0a21.074,21.074,0,0,1,6.713-2.2,21.854,21.854,0,0,1-5.738,8.9A3.039,3.039,0,0,1,25.485,18.273ZM16.91,14.867a2.834,2.834,0,0,1-.334-.021,60.931,60.931,0,0,0-6.755-.388l-.007-.01a32.391,32.391,0,0,1-5.323-8.59A31.332,31.332,0,0,1,10.905,8.17a24.581,24.581,0,0,1,5.666,3.75C17.71,12.95,18.2,13.9,17.888,14.45A1.059,1.059,0,0,1,16.91,14.867Zm5.321-.377c-.329,0-.687-.293-1.008-.824a65.969,65.969,0,0,0-3.74-5.494l0-.006,0-.006A25.767,25.767,0,0,1,20.251,0a28,28,0,0,1,2.975,12.014c-.007,1.458-.365,2.405-.932,2.472A.537.537,0,0,1,22.231,14.49Z" transform="translate(0 0.48)" fill="#146e37"/><path d="M0,0H36.124V39.042H0Z" transform="translate(0 0.077)" fill="none"/><g clip-path="url(#a)"><path d="M18.161,39.042h0a21.047,21.047,0,0,1-6.052-.982,36.144,36.144,0,0,0,6.266-7.205l.007-.01c.12.468.29,1.04.439,1.545l.069.235c.635,2.147,1.457,4.312,2.178,6.147A15.531,15.531,0,0,1,18.161,39.042Zm9.6-3.049v0a28.763,28.763,0,0,0-.844-8.258.057.057,0,0,0,0-.011c.269.116.586.238.892.355.186.071.377.145.553.215a40.779,40.779,0,0,0,5.073,1.591,19.058,19.058,0,0,1-5.671,6.108ZM5.206,33.614h0A19.8,19.8,0,0,1,.187,24.5a29.645,29.645,0,0,0,7.208.828c.956,0,1.949-.038,2.952-.113h.013c-.281.391-.6.871-.911,1.335l-.257.384c-1.26,1.875-2.526,4-3.985,6.681ZM35.861,23.333v0a20.719,20.719,0,0,0-5.7-4.164l-.009,0c.249-.153.533-.34.807-.522.163-.108.329-.218.485-.319a44.825,44.825,0,0,0,4.3-3.222,26.424,26.424,0,0,1,.125,8.23ZM0,15.385H0A19.921,19.921,0,0,1,4.668,6.029,32.32,32.32,0,0,0,9.978,14.6l0,0,0,.005-.011,0c-.472,0-1.041.021-1.591.041H8.357l-.429.015C5.2,14.764,2.4,15.088,0,15.384Zm26.387-4.553v0c.079-.471.16-1.059.23-1.579l.023-.169c.293-2.139.445-4.328.566-6.375a18.933,18.933,0,0,1,5.887,5.921,21.027,21.027,0,0,0-6.7,2.2l-.006,0Zm-8.754-2.5v0c-.222-.291-.494-.626-.758-.95-.159-.2-.322-.4-.474-.586-1.576-1.979-3.325-3.831-4.98-5.538A17.265,17.265,0,0,1,20.393.181a25.743,25.743,0,0,0-2.758,8.145l0,.009Z" transform="translate(0 0.077)" fill="#3fa110"/></g><path d="M88.619,26.9a4.793,4.793,0,0,1-3.874-1.538c-1.378-1.6-1.782-4.421-1.236-8.63,1.077-7.89,3.973-9.475,8.3-9.475a37.966,37.966,0,0,1,5.406.418L98.276.037h5.874l-3.68,26.424H95.79V23.507C93.471,25.761,91.058,26.9,88.619,26.9Zm5.433-15.292c-3.261,0-3.956.422-4.6,5.266-.33,2.482-.427,4.029.058,4.593a1.129,1.129,0,0,0,.916.311q.068,0,.14,0c1.791-.036,3.2-.994,5.023-2.635l1.033-7.531ZM72.025,26.9c-3.386,0-5.715-.781-7.12-2.387-1.431-1.637-1.923-4.194-1.5-7.816.841-7.059,3.521-9.441,10.617-9.441,3.508,0,5.791.679,6.982,2.075a5.445,5.445,0,0,1,.915,4.486c-.571,3.977-3.313,4.965-7.554,5.27l-5.041.386a2.486,2.486,0,0,0,.931,2.087,4.264,4.264,0,0,0,2.389.471,62.563,62.563,0,0,0,6.82-.4l.284-.074.032.3a22.192,22.192,0,0,0,.69,3.3l.067.224-.212.092A24.283,24.283,0,0,1,72.025,26.9Zm2.183-15.149c-.171,0-.356,0-.549.005-2.789,0-3.437.993-3.969,3.979l3.832-.372c1.709-.139,2.506-.48,2.7-2.13a1.491,1.491,0,0,0-.19-1.128C75.77,11.813,75.139,11.754,74.209,11.754ZM39.28,26.9c-3.32,0-5.582-.759-6.914-2.32-1.383-1.62-1.812-4.152-1.31-7.741.5-3.612,1.412-5.886,2.952-7.374,1.56-1.507,3.834-2.209,7.156-2.209a24.125,24.125,0,0,1,6.917.832L47.5,12.279c-.022,0-4.408-.077-5.616-.077-2.928,0-4.234.69-4.747,4.966-.285,2.306-.186,3.5.345,4.108.427.493,1.194.685,2.734.685a40.337,40.337,0,0,0,5.617-.328l.389-.067-.608,4.415-.152.05A20.332,20.332,0,0,1,39.28,26.9Zm70.614-.442h-5.843l2.572-18.686h5.843L109.894,26.46Zm-55.282,0H48.731L51.3,7.775h4.645V11.38c2.719-2.527,4.8-3.605,6.97-3.605H64.05l-.225.391a20.574,20.574,0,0,0-2.158,5.252l-.044.2H60.368a6.581,6.581,0,0,0-4.333,2.09L54.611,26.46Zm-27.837,0H20.931L23.5,7.775h5.843L26.774,26.46Zm-17.746,0H0l.718-5.132H8.793c3.247,0,4.063-.464,4.365-2.482.194-1.52-.139-1.805-1.648-2.366L6.757,14.553c-3.6-1.488-4.924-3.769-4.432-7.625C3.114,1.1,6.435,0,12.289,0h8.6L20.17,5.132H10.535c-1.273.091-1.926.442-2.2,2.193-.231,1.55.09,1.814,1.831,2.476l4.493,1.74c4.319,1.7,4.914,4.209,4.474,7.7C18.423,24.77,16.061,26.456,9.028,26.456Zm103.8-21.325h-5.843L107.693,0h5.842l-.705,5.131Zm-83.12,0H23.867L24.574,0h5.842L29.71,5.131Z" transform="translate(43.615 6.061)" fill="#3fa110"/></g></svg>
