<svg width="69" height="75" viewBox="0 0 69 75" fill="none" xmlns="http://www.w3.org/2000/svg">
<path d="M22.7351 73.0135C22.1572 64.5744 23.6274 56.1205 27.0202 48.3724C28.1448 45.9587 29.4749 44.5178 30.5823 44.5178C30.6991 44.5177 30.8151 44.5351 30.9268 44.5692C31.6156 44.7804 32.0932 45.6123 32.2721 46.9124C32.8581 51.0645 33.6641 55.1826 34.6868 59.2491C34.6833 59.2561 34.6788 59.2626 34.6734 59.2682C31.3156 64.3564 27.2987 68.9771 22.7274 73.0097L22.7351 73.0135ZM52.5772 69.0694C46.7517 65.1112 42.0973 59.6589 39.1013 53.2835C38.2108 51.3191 37.6609 48.9054 38.7931 48.0488C39.037 47.8698 39.3336 47.7774 39.636 47.7861C40.2098 47.8192 40.7649 48.0023 41.2458 48.3172C44.3565 50.2177 47.6055 51.8816 50.9655 53.2949V53.3063C52.2617 58.4512 52.804 63.7572 52.5753 69.058L52.5772 69.0694ZM13.748 48.7226C9.11793 48.7611 4.5007 48.2305 0 47.1427C6.6393 41.0946 14.6755 36.7895 23.3877 34.6137C24.2049 34.4293 25.039 34.3298 25.8766 34.3168C27.3989 34.3168 28.4131 34.7565 28.708 35.556C28.9706 36.2736 28.6281 37.2063 27.7414 38.179C24.7832 41.472 22.0018 44.9197 19.4089 48.5076H19.3842C17.4642 48.6503 15.5709 48.7226 13.748 48.7226ZM55.8843 47.1827C53.815 47.193 51.7509 46.9766 49.7287 46.5374C47.3806 46.0139 45.923 44.9156 46.0067 43.743C46.06 43.0387 46.6803 42.3725 47.7097 41.9118C50.9686 40.4947 54.1192 38.8405 57.1364 36.9627H57.1516C61.2073 38.9757 64.887 41.671 68.0301 44.9308C64.1531 46.4176 60.0365 47.1808 55.8843 47.1827ZM48.4937 35.5522C48.3181 35.5612 48.1425 35.533 47.9785 35.4694C47.8145 35.4058 47.6659 35.3081 47.5423 35.1829C47.3005 34.7988 47.1566 34.3611 47.1234 33.9084C47.0903 33.4557 47.1688 33.0017 47.352 32.5865C48.4154 28.7983 49.288 24.9592 49.9665 21.0835H49.9836C53.9757 18.9785 58.2942 17.5627 62.7574 16.8957C60.5612 23.3529 56.8117 29.1708 51.8389 33.8371C50.9459 34.7655 49.7686 35.3691 48.4937 35.5522ZM32.1769 29.0688C31.9645 29.068 31.7522 29.0546 31.5414 29.0288C27.2738 28.5446 22.9826 28.298 18.6877 28.2902L18.6744 28.2712C14.4638 23.3844 11.0459 17.8669 8.54563 11.9199C12.7618 12.9384 16.8543 14.4141 20.7504 16.3208C24.6572 18.1895 28.2857 20.5919 31.5319 23.4591C33.6992 25.4197 34.6316 27.228 34.0379 28.275C33.8252 28.5597 33.541 28.783 33.2142 28.9224C32.8874 29.0618 32.5295 29.1123 32.1769 29.0688ZM42.3019 28.3511C41.6759 28.3511 40.9946 27.7934 40.3838 26.7826C38.1888 23.1792 35.8136 19.6888 33.2672 16.3247V16.3132V16.3018C34.1389 10.8652 35.9195 5.61418 38.5343 0.769043C42.1029 7.87416 44.0371 15.688 44.1952 23.638C44.1819 26.4133 43.5007 28.216 42.4218 28.3435C42.382 28.3484 42.342 28.3509 42.3019 28.3511Z" fill="#146E37"/>
<path d="M34.5574 74.3193C30.6481 74.2618 26.7683 73.6321 23.0414 72.45C27.6046 68.426 31.614 63.8141 34.9646 58.7351L34.9779 58.7161C35.2062 59.6069 35.5297 60.6957 35.8132 61.657L35.9445 62.1044C37.1528 66.1912 38.717 70.3124 40.0889 73.8053C38.2653 74.15 36.4133 74.3221 34.5574 74.3193ZM52.8246 68.5154C53.0519 63.2255 52.5109 57.9306 51.2186 52.7961C51.2193 52.7892 51.2193 52.7821 51.2186 52.7752C51.7304 52.996 52.3336 53.2282 52.9159 53.4509C53.2698 53.5861 53.6333 53.7269 53.9682 53.8602C57.1166 55.0787 60.3411 56.0903 63.6213 56.8887C60.9259 61.5133 57.2407 65.4838 52.8303 68.5154H52.8246ZM9.90615 63.9869C5.23362 59.1591 1.93633 53.1694 0.35583 46.6382C4.84595 47.7234 9.45232 48.2527 14.0715 48.2143C15.8906 48.2143 17.7801 48.142 19.6886 47.9992H19.7134C19.1787 48.7435 18.5717 49.6572 17.9799 50.5404L17.4909 51.2714C15.0933 54.8405 12.6843 58.8855 9.90806 63.9888L9.90615 63.9869ZM68.2375 44.4168C65.102 41.1735 61.4334 38.4925 57.3914 36.4905H57.3743C57.8481 36.1993 58.3885 35.8433 58.9098 35.4969C59.22 35.2913 59.5359 35.0819 59.8327 34.8896C62.6803 33.0108 65.4126 30.9627 68.0149 28.7565C68.9117 33.934 68.992 39.2201 68.2528 44.4225L68.2375 44.4168ZM0 29.2876C1.32286 22.6658 4.3893 16.5176 8.88243 11.4782C11.3765 17.4118 14.786 22.9172 18.9865 27.7933V27.8028H18.9655C18.0674 27.8028 16.9847 27.8428 15.9381 27.8809H15.902L15.0857 27.9094C9.89474 28.1055 4.5668 28.7222 0 29.2857V29.2876ZM50.2101 20.6208C50.3604 19.7243 50.5145 18.605 50.6477 17.6152L50.6915 17.2935C51.249 13.2218 51.5383 9.05501 51.7685 5.15849C56.2944 8.03468 60.1214 11.8852 62.9705 16.4293C58.5155 17.0973 54.2052 18.5131 50.2215 20.617H50.2101V20.6208ZM33.5527 15.862C33.1302 15.3081 32.6127 14.6704 32.1103 14.0537C31.8078 13.673 31.4976 13.2923 31.2084 12.9382C28.2095 9.17112 24.8815 5.64579 21.7323 2.39647C27.1401 0.209013 33.0327 -0.49859 38.8045 0.346376C36.1986 5.18354 34.4245 10.4247 33.5565 15.8506V15.8677L33.5527 15.862Z" fill="#3FA110"/>
</svg>
